<svg width="1000" height="1000" viewBox="0 0 1000 1000" fill="none" xmlns="http://www.w3.org/2000/svg">
<g clip-path="url(#clip0_50_51)">
<path d="M899.998 900H99.9976C73.4759 900 48.0405 889.465 29.2869 870.711C10.5332 851.957 -0.00244141 826.522 -0.00244141 800V195.65C1.11919 169.89 12.148 145.558 30.7815 127.735C49.4149 109.912 74.2127 99.9759 99.9976 100H899.998C926.519 100 951.955 110.536 970.708 129.29C989.462 148.043 999.998 173.479 999.998 200V800C999.998 826.522 989.462 851.957 970.708 870.711C951.955 889.465 926.519 900 899.998 900ZM99.9976 293.4V800H899.998V293.4L499.998 560L99.9976 293.4ZM139.998 200L499.998 440L859.998 200H139.998Z" fill="white"/>
</g>
<defs>
<clipPath id="clip0_50_51">
<rect width="1000" height="1000" fill="white"/>
</clipPath>
</defs>
</svg>
