<svg width="1000" height="1000" viewBox="0 0 1000 1000" fill="none" xmlns="http://www.w3.org/2000/svg">
<path d="M833.333 313.802C809.028 324.653 782.769 332.031 754.557 335.938C784.071 318.576 804.253 293.186 815.104 259.766C786.892 276.259 757.813 287.326 727.865 292.969C701.389 264.323 668.186 250 628.255 250C590.495 250 558.268 263.346 531.576 290.039C504.883 316.732 491.536 348.958 491.536 386.719C491.536 399.306 492.622 409.722 494.792 417.969C438.802 414.931 386.285 400.825 337.24 375.651C288.194 350.477 246.528 316.84 212.24 274.74C199.653 296.441 193.359 319.444 193.359 343.75C193.359 393.229 213.108 431.207 252.604 457.682C232.205 457.248 210.503 451.606 187.5 440.755V442.057C187.5 474.609 198.351 503.581 220.052 528.971C241.753 554.362 268.446 570.096 300.13 576.172C287.543 579.644 276.476 581.38 266.927 581.38C261.285 581.38 252.821 580.512 241.536 578.776C250.651 606.12 266.819 628.689 290.039 646.484C313.26 664.28 339.627 673.394 369.141 673.828C318.793 712.891 262.153 732.422 199.219 732.422C187.934 732.422 177.083 731.771 166.667 730.469C230.903 771.267 300.781 791.667 376.302 791.667C424.913 791.667 470.486 783.963 513.021 768.555C555.556 753.147 592.014 732.53 622.396 706.706C652.778 680.881 678.928 651.15 700.846 617.513C722.765 583.876 739.041 548.72 749.675 512.044C760.308 475.369 765.625 438.802 765.625 402.344C765.625 394.531 765.408 388.672 764.974 384.766C792.318 365.234 815.104 341.58 833.333 313.802ZM1000 187.5V812.5C1000 864.149 981.662 908.312 944.987 944.987C908.312 981.662 864.149 1000 812.5 1000H187.5C135.851 1000 91.6884 981.662 55.013 944.987C18.3377 908.312 0 864.149 0 812.5V187.5C0 135.851 18.3377 91.6884 55.013 55.013C91.6884 18.3377 135.851 0 187.5 0H812.5C864.149 0 908.312 18.3377 944.987 55.013C981.662 91.6884 1000 135.851 1000 187.5Z" fill="white"/>
</svg>
